<?xml version="1.0" ?><!-- Uploaded to: SVG Repo, www.svgrepo.com, Generator: SVG Repo Mixer Tools -->
<svg fill="#000000" width="800px" height="800px" viewBox="0 -0.08 20 20" data-name="Capa 1" id="Capa_1" xmlns="http://www.w3.org/2000/svg"><path d="M15,12.27H10.44L14.3,8.38a.37.37,0,0,0,0-.53L12.54,6.09a.37.37,0,0,0-.53,0l-1,1,.54-1.36a.37.37,0,0,0-.2-.49L9,4.36a.37.37,0,0,0-.29,0,.38.38,0,0,0-.2.21L7.91,6V5.07a.38.38,0,0,0-.38-.38H5a.37.37,0,0,0-.37.38v7.45a.13.13,0,0,0,0,.06s0,0,0,.06v2.5a.37.37,0,0,0,.37.37H15a.37.37,0,0,0,.37-.37v-2.5A.36.36,0,0,0,15,12.27ZM12.27,6.88l1.24,1.24L9.38,12.27H6.89ZM9.05,5.19l1.62.66L9.62,8.45s0,0,0,0L6.45,11.64Zm-1.89.25V7.82s0,0,0,0L5.42,12.2V5.44Zm7.42,9.32H5.42V13h9.16Z"/><path d="M6.69,14.51a.63.63,0,1,0-.62-.62A.63.63,0,0,0,6.69,14.51Zm0-.84a.22.22,0,0,1,.22.22.21.21,0,0,1-.22.21.21.21,0,0,1-.21-.21A.21.21,0,0,1,6.69,13.67Z"/></svg>