<!DOCTYPE svg PUBLIC "-//W3C//DTD SVG 1.1//EN" "http://www.w3.org/Graphics/SVG/1.1/DTD/svg11.dtd">
<!-- Uploaded to: SVG Repo, www.svgrepo.com, Transformed by: SVG Repo Mixer Tools -->
<svg width="800px" height="800px" viewBox="0 0 64 64" enable-background="new 0 0 64 64" version="1.1" xml:space="preserve" xmlns="http://www.w3.org/2000/svg" xmlns:xlink="http://www.w3.org/1999/xlink" fill="#000000">
<g id="SVGRepo_bgCarrier" stroke-width="0"/>
<g id="SVGRepo_tracerCarrier" stroke-linecap="round" stroke-linejoin="round"/>
<g id="SVGRepo_iconCarrier"> <g id="Home"/> <g id="Camera"/> <g id="Mail"/> <g id="Print"/> <g id="Save"/> <g id="Folder"/> <g id="Search"/> <g id="User"/> <g id="Pin"/> <g id="Calendar"/> <g id="Gallery"/> <g id="time"> <g> <path d="M62,32c0,16.5-13.5,30-30,30S2,48.5,2,32C2,15.5,15.5,2,32,2S62,15.5,62,32z" fill="#ff"/> </g> <path d="M50.8,38.2L34,30.7V14c0-1.1-0.9-2-2-2s-2,0.9-2,2v18c0,0,0,0,0,0v0c0,0,0,0.1,0,0.1c0,0.1,0,0.2,0,0.3 c0,0.1,0,0.1,0.1,0.2c0,0.1,0,0.1,0.1,0.2c0,0.1,0.1,0.1,0.1,0.2c0,0.1,0.1,0.1,0.1,0.2c0,0.1,0.1,0.1,0.1,0.1 c0,0.1,0.1,0.1,0.1,0.2c0,0,0.1,0.1,0.1,0.1c0,0,0.1,0.1,0.1,0.1c0.1,0,0.1,0.1,0.2,0.1c0,0,0.1,0,0.1,0.1l0,0c0,0,0,0,0,0l18,8 c0.3,0.1,0.5,0.2,0.8,0.2c0.8,0,1.5-0.4,1.8-1.2C52.3,39.8,51.8,38.6,50.8,38.2z" fill="#FFFFFF"/> </g> <g id="Pin_1_"/> <g id="Setting"/> <g id="Player"/> <g id="Lock"/> <g id="Trash_Can"/> <g id="Notification"/> <g id="Record"/> <g id="Shopping_Bag"/> </g>
</svg>