<?xml version="1.0" standalone="no"?>
<!DOCTYPE svg PUBLIC "-//W3C//DTD SVG 20010904//EN"
 "http://www.w3.org/TR/2001/REC-SVG-20010904/DTD/svg10.dtd">
<svg version="1.0" xmlns="http://www.w3.org/2000/svg"
 width="707.000000pt" height="684.000000pt" viewBox="0 0 707.000000 684.000000"
 preserveAspectRatio="xMidYMid meet">

<g transform="translate(0.000000,684.000000) scale(0.100000,-0.100000)"
 stroke="none">
<path fill="#fff" d="M2260 6600 c-507 -49 -851 -349 -945 -823 -10 -48 -16 -89 -14 -92 2
-2 44 -9 93 -15 101 -14 100 -14 111 58 26 176 135 373 264 480 145 121 369
202 556 202 l52 0 7 38 c3 20 6 65 6 100 0 71 13 66 -130 52z"/>
<path fill="#fff" d="M2245 6233 c-71 -10 -156 -37 -235 -75 -169 -81 -300 -249 -346 -444
-21 -89 -21 -89 75 -99 36 -3 73 -8 82 -11 13 -3 20 10 32 60 47 189 168 313
353 361 32 8 79 15 105 15 l46 0 7 53 c3 28 6 73 6 100 l0 47 -47 -1 c-27 -1
-61 -4 -78 -6z"/>
<path fill="red" d="M2140 5858 c-103 -53 -131 -181 -57 -265 37 -42 82 -63 134 -63 74 0
154 69 169 145 14 79 -44 172 -121 194 -57 16 -75 14 -125 -11z"/>
<path fill="#EB9E27" d="M3401 5805 c-100 -23 -159 -44 -251 -91 -328 -169 -583 -536 -669
-965 -77 -382 -31 -668 189 -1174 172 -394 491 -945 818 -1413 68 -97 88 -120
98 -110 59 63 409 604 563 873 172 298 413 806 446 938 l7 28 -137 -3 -138 -3
-44 -105 c-63 -151 -176 -382 -278 -565 -173 -314 -422 -713 -435 -698 -16 17
-171 266 -263 420 -313 525 -511 959 -578 1265 -23 106 -27 286 -9 409 65 433
314 776 645 886 69 23 98 27 205 27 142 1 221 -18 342 -81 146 -76 294 -233
384 -408 l49 -95 138 0 138 0 -7 23 c-3 12 -23 60 -43 107 -161 374 -437 632
-777 726 -83 23 -310 28 -393 9z"/>
<path fill="#EB9E27" d="M3840 4040 l0 -130 379 0 380 0 15 22 c12 17 16 49 16 130 l0 108
-395 0 -395 0 0 -130z"/>
<path fill="#fff" d="M1210 2525 c-542 -145 -1003 -269 -1025 -275 -39 -12 -17 -20 1590
-594 897 -320 1660 -593 1696 -605 l66 -24 1691 604 c930 332 1688 607 1684
610 -9 7 -2053 551 -2056 547 -7 -9 -98 -369 -95 -373 2 -2 190 -53 418 -114
228 -61 416 -113 419 -115 3 -3 -1 -8 -9 -11 -280 -104 -2040 -727 -2054 -727
-15 0 -1109 388 -2054 727 -8 3 -12 8 -9 10 2 2 190 54 418 115 228 61 416
113 419 115 8 9 -93 375 -104 374 -5 0 -453 -119 -995 -264z"/>
<path fill="#fff" d="M855 1408 c-32 -83 -112 -354 -107 -359 4 -4 633 -208 1397 -453
l1391 -447 1389 447 c765 245 1393 449 1397 453 8 7 -97 349 -111 363 -3 4
-607 -186 -1341 -422 l-1335 -429 -1320 425 c-726 233 -1328 427 -1338 430 -9
3 -19 0 -22 -8z"/>
</g>
</svg>
